<?xml version="1.0" standalone="no"?>
<!DOCTYPE svg PUBLIC "-//W3C//DTD SVG 20010904//EN"
 "http://www.w3.org/TR/2001/REC-SVG-20010904/DTD/svg10.dtd">
<svg version="1.0" xmlns="http://www.w3.org/2000/svg"
 width="411.000000pt" height="208.000000pt" viewBox="0 0 411.000000 208.000000"
 preserveAspectRatio="xMidYMid meet">

<g transform="translate(0.000000,208.000000) scale(0.100000,-0.100000)"
fill="#000000" stroke="none">
<path d="M2140 1425 l0 -105 -215 0 -215 0 0 -55 0 -55 -55 0 -55 0 0 -154 0
-155 53 -3 52 -3 3 -52 3 -53 320 0 319 0 0 370 0 370 -105 0 -105 0 0 -105z
m0 -375 l0 -160 -161 2 -161 3 1 155 c0 85 1 156 1 158 0 1 72 2 160 2 l160 0
0 -160z"/>
<path d="M850 1055 l0 -265 105 0 105 0 0 160 0 160 55 0 55 0 0 50 0 50 160
0 160 0 0 55 0 55 -160 0 -160 0 0 -55 0 -55 -55 0 -55 0 0 55 0 55 -105 0
-105 0 0 -265z"/>
<path d="M2465 1307 c-3 -7 -4 -78 -3 -157 l3 -145 53 -3 52 -3 0 -49 0 -50
213 -2 212 -3 3 -57 3 -58 -216 0 -215 0 0 -50 0 -50 264 0 265 0 3 53 3 52
53 3 52 3 0 265 0 264 -105 0 -105 0 0 -160 0 -160 -160 0 -159 0 -3 158 -3
157 -103 3 c-78 2 -104 0 -107 -11z"/>
<path d="M906 668 c-10 -29 -24 -63 -32 -75 -19 -30 -18 -33 10 -33 19 0 22 4
18 25 -4 23 -1 25 32 25 32 0 36 -3 36 -25 0 -20 5 -25 26 -25 22 0 25 2 14
15 -7 8 -23 43 -35 78 -29 80 -47 84 -69 15z m48 0 c9 -35 8 -38 -13 -38 -11
0 -22 3 -24 8 -7 10 11 52 22 52 5 0 11 -10 15 -22z"/>
<path d="M2168 695 c4 -21 1 -25 -20 -25 -50 0 -76 -61 -40 -93 25 -23 97 -23
88 -1 -3 9 -6 45 -6 80 0 47 -4 64 -14 64 -9 0 -12 -8 -8 -25z m-3 -80 c0 -30
-4 -41 -17 -43 -26 -5 -44 39 -28 67 19 36 45 22 45 -24z"/>
<path d="M2373 714 c-7 -3 -13 -13 -13 -21 0 -14 3 -13 20 2 19 18 22 18 38 2
16 -16 15 -19 -11 -43 -27 -25 -36 -54 -17 -54 6 0 10 6 10 13 0 8 9 22 20 32
30 27 23 69 -10 72 -14 1 -31 -1 -37 -3z"/>
<path d="M1048 628 c3 -23 0 -44 -8 -53 -11 -13 -9 -15 13 -15 23 0 24 2 19
45 -4 41 -3 45 17 45 11 0 21 4 21 9 0 5 -15 9 -34 8 -33 -1 -33 -2 -28 -39z"/>
<path d="M1147 652 c-22 -24 -21 -55 1 -75 20 -19 72 -23 72 -7 0 6 -10 8 -24
4 -18 -4 -27 -1 -36 15 -10 20 -8 21 30 21 45 0 44 -1 30 34 -12 31 -49 35
-73 8z m52 -1 c18 -11 5 -31 -20 -31 -18 0 -26 20 -12 33 8 9 15 9 32 -2z"/>
<path d="M1303 658 c3 -7 13 -33 23 -57 13 -34 15 -48 6 -62 -16 -26 -15 -29
9 -29 14 0 19 5 16 15 -6 15 19 103 34 119 13 15 11 26 -6 26 -9 0 -15 -9 -15
-24 0 -13 -3 -32 -6 -40 -10 -25 -34 0 -34 35 0 20 -5 29 -16 29 -9 0 -14 -6
-11 -12z"/>
<path d="M1448 659 c-21 -12 -24 -69 -6 -87 7 -7 24 -12 38 -12 34 0 50 17 50
55 0 50 -38 70 -82 44z m56 -15 c20 -19 20 -35 2 -60 -12 -15 -18 -17 -33 -8
-22 14 -29 50 -13 70 16 18 25 18 44 -2z"/>
<path d="M1567 628 c7 -66 9 -68 57 -68 l44 0 -5 43 c-6 54 -10 67 -22 67 -5
0 -7 -17 -5 -37 6 -44 -6 -66 -29 -57 -10 4 -17 20 -19 47 -2 22 -8 42 -15 44
-8 3 -10 -9 -6 -39z"/>
<path d="M1750 659 c0 -5 5 -9 10 -9 13 0 13 -46 0 -71 -9 -17 -7 -19 16 -19
22 0 24 2 15 14 -21 25 -9 69 19 77 30 8 27 10 -22 14 -21 2 -38 0 -38 -6z"/>
<path d="M1866 654 c-18 -18 -20 -47 -6 -75 12 -21 64 -27 76 -8 4 8 -1 9 -15
4 -22 -7 -51 9 -51 26 0 5 16 9 35 9 27 0 35 4 35 18 0 39 -45 55 -74 26z m52
-17 c3 -12 -3 -17 -22 -17 -25 0 -35 18 -19 34 12 12 38 2 41 -17z"/>
<path d="M1985 661 c-3 -6 7 -9 22 -8 19 1 28 -3 31 -15 3 -13 -3 -18 -21 -18
-30 0 -50 -21 -41 -44 4 -11 19 -16 48 -16 l43 0 -7 43 c-3 23 -10 48 -14 55
-9 14 -52 16 -61 3z m55 -58 c-1 -19 -19 -35 -34 -30 -26 10 -19 37 9 37 14 0
25 -3 25 -7z"/>
<path d="M2220 666 c0 -2 11 -28 24 -56 23 -49 23 -55 9 -76 -14 -23 -14 -24
5 -24 14 0 20 6 20 18 -2 25 32 122 43 122 5 0 9 5 9 10 0 6 -9 10 -20 10 -12
0 -20 -6 -18 -12 1 -7 -1 -26 -6 -43 -7 -29 -8 -29 -22 -11 -8 11 -14 30 -14
43 0 14 -6 23 -15 23 -8 0 -15 -2 -15 -4z"/>
<path d="M2380 576 c0 -9 5 -16 10 -16 6 0 10 4 10 9 0 6 -4 13 -10 16 -5 3
-10 -1 -10 -9z"/>
</g>
</svg>
